<?xml version="1.0" encoding="utf-8"?>
<!-- Generator: Adobe Illustrator 24.1.0, SVG Export Plug-In . SVG Version: 6.00 Build 0)  -->
<svg version="1.1" id="Layer_1" xmlns="http://www.w3.org/2000/svg" xmlns:xlink="http://www.w3.org/1999/xlink" x="0px" y="0px"
	 viewBox="0 0 2000 2000" style="enable-background:new 0 0 2000 2000;" xml:space="preserve">
<style type="text/css">
	.st0{fill:url(#SVGID_1_);}
	.st1{fill:#FFFFFF;}
</style>
<g>
	<linearGradient id="SVGID_1_" gradientUnits="userSpaceOnUse" x1="1285.8641" y1="-112.7233" x2="713.4692" y2="2112.0566">
		<stop  offset="0" style="stop-color:#EF465F"/>
		<stop  offset="1" style="stop-color:#E0881A"/>
	</linearGradient>
	<path class="st0" d="M1755.7,1983.69H243.63c-125.92,0-227.99-102.08-227.99-227.99V243.63c0-125.92,102.08-227.99,227.99-227.99
		H1755.7c125.92,0,227.99,102.08,227.99,227.99V1755.7C1983.69,1881.62,1881.62,1983.69,1755.7,1983.69z"/>
	<g>
		<g>
			<path class="st1" d="M284.52,1398.61v-29.09h16.52v95.37h-16.52v-5.9c-3.31,2.61-6.81,4.58-10.48,5.88
				c-3.67,1.27-7.65,1.92-11.92,1.92c-4.53,0-8.82-0.72-12.83-2.16c-4.03-1.44-7.63-3.53-10.82-6.28
				c-4.36-3.76-7.72-8.2-10.05-13.33c-2.35-5.13-3.53-10.58-3.53-16.35c0-5.32,1.08-10.43,3.26-15.32c2.16-4.89,5.2-9.11,9.14-12.71
				c3.26-3.09,7.03-5.44,11.27-7.07c4.22-1.61,8.75-2.42,13.55-2.42c4.63,0,8.73,0.6,12.33,1.8
				C278.02,1394.13,281.38,1396.02,284.52,1398.61z M283.8,1429.19c0-6.16-1.94-11.29-5.85-15.4c-3.91-4.1-8.8-6.14-14.65-6.14
				c-5.76,0-10.7,2.09-14.77,6.28s-6.11,9.18-6.11,14.99c0,6.07,2.04,11.13,6.16,15.18c4.1,4.03,9.28,6.04,15.52,6.04
				c5.49,0,10.17-2.01,13.98-6.09C281.91,1440,283.8,1435.04,283.8,1429.19z"/>
			<path class="st1" d="M370.4,1464.89v-8.85c-1.99,3.6-4.82,6.23-8.46,7.94c-3.64,1.7-8.32,2.54-14,2.54
				c-10.65,0-19.54-3.62-26.69-10.91c-7.12-7.27-10.7-16.28-10.7-27.07c0-5.06,0.89-9.88,2.69-14.41c1.77-4.53,4.34-8.54,7.65-11.99
				c3.6-3.79,7.55-6.59,11.92-8.42c4.36-1.82,9.28-2.71,14.75-2.71c5.25,0,9.76,0.86,13.52,2.61c3.79,1.75,6.83,4.39,9.14,7.91v-8.7
				h16.38v72.06H370.4z M327.69,1428.28c0,6.07,2.04,11.15,6.07,15.23s8.97,6.14,14.77,6.14c5.28,0,9.93-2.06,13.96-6.16
				c4-4.1,6.02-8.92,6.02-14.41c0-5.85-2.01-10.89-6.07-15.11c-4.03-4.22-8.75-6.31-14.17-6.31c-5.68,0-10.53,1.99-14.53,5.97
				C329.7,1417.63,327.69,1422.52,327.69,1428.28z"/>
			<path class="st1" d="M417.76,1385.5h-16.38v-15.97h16.38V1385.5z M401.38,1464.89v-72.06h16.38v72.06H401.38z"/>
			<path class="st1" d="M432.77,1464.89v-95.37h16.38v95.37H432.77z"/>
			<path class="st1" d="M455.09,1392.83h17.77l17.55,50.31l19.33-50.31h17.55l-38.92,95.37h-17.29l10.1-25.35L455.09,1392.83z"/>
			<path class="st1" d="M584.61,1418.44c-2.01-3.74-4.58-6.57-7.7-8.44s-6.83-2.83-11.1-2.83c-5.68,0-10.43,2.06-14.24,6.16
				c-3.84,4.1-5.73,9.26-5.73,15.47c0,6.11,1.94,11.2,5.85,15.25c3.91,4.08,8.82,6.09,14.72,6.09c4.53,0,8.3-0.96,11.32-2.9
				s5.28-4.87,6.74-8.75h17.89c-2.18,8.82-6.43,15.76-12.76,20.77c-6.35,5.04-14.03,7.53-23.07,7.53c-5.32,0-10.26-0.94-14.8-2.85
				c-4.56-1.89-8.66-4.7-12.33-8.42c-3.41-3.48-6.07-7.58-7.99-12.28c-1.92-4.7-2.88-9.47-2.88-14.32c0-5.06,0.86-9.81,2.61-14.2
				c1.75-4.41,4.32-8.39,7.72-11.94c3.76-3.96,7.99-6.98,12.71-9.04c4.72-2.04,9.78-3.07,15.2-3.07c8.82,0,16.45,2.52,22.92,7.53
				c6.45,5.04,10.72,11.77,12.78,20.24H584.61z"/>
			<path class="st1" d="M630.53,1385.5h-16.38v-15.97h16.38V1385.5z M614.15,1464.89v-72.06h16.38v72.06H614.15z"/>
			<path class="st1" d="M692.31,1464.89v-7.79c-2.45,3.29-5.25,5.71-8.42,7.31c-3.17,1.58-6.79,2.37-10.84,2.37
				c-9.04,0-15.99-2.76-20.84-8.32c-4.84-5.54-7.27-13.5-7.27-23.91v-41.73h16.95v32.37c0,9.74,1.13,16.38,3.36,19.98
				c2.23,3.57,6.07,5.37,11.51,5.37c5.59,0,9.62-2.01,12.04-6.04c2.42-4,3.62-10.82,3.62-20.43v-31.25h16.52v72.06H692.31z"/>
			<path class="st1" d="M734.61,1440.99v0.98c0,3.19,0.82,5.78,2.42,7.77c1.63,1.99,3.72,2.97,6.31,2.97c2.45,0,4.44-0.74,6-2.23
				c1.53-1.49,2.33-3.38,2.33-5.71c0-2.13-0.58-3.88-1.7-5.28c-1.15-1.37-3.17-2.76-6.09-4.15c-1.68-0.74-4.12-1.77-7.34-3.07
				c-3.24-1.32-5.32-2.35-6.23-3.09c-2.66-2.18-4.63-4.6-5.9-7.29c-1.27-2.69-1.89-5.76-1.89-9.21c0-6.07,2.13-11.2,6.38-15.4
				c4.27-4.2,9.42-6.28,15.49-6.28c6.43,0,11.51,1.85,15.23,5.56c3.74,3.72,5.78,8.9,6.14,15.59h-15.06v-0.38
				c0-2.33-0.6-4.12-1.82-5.44c-1.2-1.32-2.85-1.97-4.99-1.97c-1.89,0-3.45,0.65-4.7,1.94c-1.25,1.27-1.87,2.88-1.87,4.8
				c0,3.14,3.24,6.07,9.71,8.78c1.7,0.7,3,1.25,3.93,1.65c6.19,2.78,10.43,5.78,12.69,8.99c2.28,3.21,3.43,7.55,3.43,13
				c0,6.74-2.28,12.3-6.83,16.69c-4.53,4.39-10.26,6.57-17.15,6.57c-6.95,0-12.54-2.3-16.81-6.93c-4.24-4.63-6.57-10.91-6.98-18.8
				L734.61,1440.99z"/>
			<path class="st1" d="M850.96,1407.44c-6.5,0.53-11.05,2.23-13.62,5.11c-2.59,2.9-3.86,8.08-3.86,15.61v36.74h-16.79v-72.06h15.73
				v8.32c2.54-3.24,5.3-5.59,8.32-7.1s6.43-2.28,10.22-2.28V1407.44z"/>
			<path class="st1" d="M870.74,1434.18c0.55,5.2,2.61,9.28,6.19,12.28c3.55,3,8.15,4.48,13.79,4.48c3.76,0,7.12-0.79,10.12-2.35
				c3-1.58,5.35-3.79,7.1-6.62h18.08c-3.05,7.87-7.63,13.96-13.72,18.3c-6.09,4.36-13.14,6.52-21.13,6.52
				c-5.37,0-10.31-0.94-14.84-2.85c-4.51-1.89-8.56-4.7-12.13-8.42c-3.41-3.53-6.07-7.63-7.94-12.28
				c-1.87-4.65-2.81-9.42-2.81-14.32c0-5.01,0.86-9.74,2.59-14.17c1.7-4.44,4.24-8.42,7.63-11.97c3.67-3.88,7.82-6.86,12.45-8.97
				c4.63-2.09,9.4-3.14,14.34-3.14c6.23,0,12.09,1.41,17.48,4.27c5.42,2.83,10.02,6.83,13.84,11.97c2.3,3.12,4.03,6.59,5.13,10.43
				c1.13,3.84,1.68,8.25,1.68,13.24c0,0.38-0.02,0.98-0.07,1.8c-0.05,0.79-0.07,1.39-0.07,1.8H870.74z M910.5,1420.87
				c-1.44-4.8-3.86-8.44-7.24-10.96c-3.38-2.52-7.65-3.76-12.81-3.76c-4.46,0-8.44,1.34-11.99,4.05c-3.53,2.71-5.92,6.26-7.15,10.67
				H910.5z"/>
			<path class="st1" d="M990.81,1418.44c-2.01-3.74-4.58-6.57-7.7-8.44s-6.83-2.83-11.1-2.83c-5.68,0-10.43,2.06-14.24,6.16
				c-3.84,4.1-5.73,9.26-5.73,15.47c0,6.11,1.94,11.2,5.85,15.25c3.91,4.08,8.82,6.09,14.72,6.09c4.53,0,8.3-0.96,11.32-2.9
				s5.28-4.87,6.74-8.75h17.89c-2.18,8.82-6.43,15.76-12.76,20.77c-6.35,5.04-14.03,7.53-23.07,7.53c-5.32,0-10.26-0.94-14.8-2.85
				c-4.56-1.89-8.66-4.7-12.33-8.42c-3.41-3.48-6.07-7.58-7.99-12.28c-1.92-4.7-2.88-9.47-2.88-14.32c0-5.06,0.86-9.81,2.61-14.2
				c1.75-4.41,4.32-8.39,7.72-11.94c3.76-3.96,7.99-6.98,12.71-9.04c4.72-2.04,9.78-3.07,15.2-3.07c8.82,0,16.45,2.52,22.92,7.53
				c6.45,5.04,10.72,11.77,12.78,20.24H990.81z"/>
			<path class="st1" d="M1036.73,1385.5h-16.38v-15.97h16.38V1385.5z M1020.35,1464.89v-72.06h16.38v72.06H1020.35z"/>
			<path class="st1" d="M1067,1459.14v29.06h-16.52v-95.37H1067v6.02c3.36-2.66,6.88-4.63,10.55-5.92c3.67-1.27,7.6-1.92,11.85-1.92
				c4.53,0,8.82,0.7,12.85,2.11c4,1.44,7.6,3.55,10.79,6.33c4.34,3.76,7.65,8.2,10,13.31c2.33,5.11,3.5,10.53,3.5,16.31
				c0,5.37-1.06,10.5-3.19,15.4c-2.11,4.89-5.11,9.09-8.99,12.64c-3.33,3.14-7.12,5.54-11.37,7.19c-4.27,1.68-8.75,2.49-13.45,2.49
				c-4.6,0-8.7-0.62-12.35-1.87C1073.54,1463.67,1070.14,1461.75,1067,1459.14z M1067.64,1428.54c0,6.16,1.99,11.29,5.97,15.42
				c3.96,4.12,8.87,6.19,14.72,6.19c5.78,0,10.7-2.09,14.77-6.28c4.1-4.2,6.14-9.21,6.14-15.06c0-6.07-2.06-11.13-6.16-15.13
				c-4.1-4.03-9.28-6.02-15.52-6.02c-5.52,0-10.22,2.01-14.1,6.04C1069.59,1417.75,1067.64,1422.69,1067.64,1428.54z"/>
			<path class="st1" d="M1151.09,1434.18c0.58,5.2,2.64,9.28,6.19,12.28c3.57,3,8.18,4.48,13.79,4.48c3.76,0,7.15-0.79,10.12-2.35
				c3-1.58,5.37-3.79,7.12-6.62h18.08c-3.07,7.87-7.63,13.96-13.72,18.3c-6.11,4.36-13.14,6.52-21.13,6.52
				c-5.37,0-10.34-0.94-14.84-2.85c-4.53-1.89-8.58-4.7-12.16-8.42c-3.41-3.53-6.04-7.63-7.91-12.28
				c-1.89-4.65-2.83-9.42-2.83-14.32c0-5.01,0.86-9.74,2.59-14.17s4.27-8.42,7.63-11.97c3.67-3.88,7.82-6.86,12.45-8.97
				c4.63-2.09,9.42-3.14,14.34-3.14c6.26,0,12.09,1.41,17.51,4.27c5.42,2.83,10.02,6.83,13.81,11.97c2.33,3.12,4.03,6.59,5.16,10.43
				c1.1,3.84,1.65,8.25,1.65,13.24c0,0.38-0.02,0.98-0.05,1.8c-0.05,0.79-0.07,1.39-0.07,1.8H1151.09z M1190.85,1420.87
				c-1.44-4.8-3.84-8.44-7.22-10.96c-3.41-2.52-7.67-3.76-12.83-3.76c-4.44,0-8.44,1.34-11.97,4.05c-3.55,2.71-5.92,6.26-7.15,10.67
				H1190.85z"/>
			<path class="st1" d="M1230.3,1440.99v0.98c0,3.19,0.82,5.78,2.42,7.77s3.72,2.97,6.28,2.97c2.45,0,4.44-0.74,5.99-2.23
				c1.56-1.49,2.33-3.38,2.33-5.71c0-2.13-0.58-3.88-1.7-5.28c-1.13-1.37-3.17-2.76-6.09-4.15c-1.65-0.74-4.1-1.77-7.34-3.07
				c-3.24-1.32-5.3-2.35-6.21-3.09c-2.69-2.18-4.63-4.6-5.9-7.29c-1.27-2.69-1.92-5.76-1.92-9.21c0-6.07,2.13-11.2,6.4-15.4
				c4.24-4.2,9.42-6.28,15.49-6.28c6.43,0,11.49,1.85,15.23,5.56c3.74,3.72,5.78,8.9,6.11,15.59h-15.06v-0.38
				c0-2.33-0.6-4.12-1.8-5.44c-1.2-1.32-2.88-1.97-5.01-1.97c-1.87,0-3.43,0.65-4.68,1.94c-1.25,1.27-1.87,2.88-1.87,4.8
				c0,3.14,3.24,6.07,9.69,8.78c1.7,0.7,3.02,1.25,3.93,1.65c6.21,2.78,10.43,5.78,12.71,8.99c2.28,3.21,3.41,7.55,3.41,13
				c0,6.74-2.28,12.3-6.81,16.69c-4.53,4.39-10.26,6.57-17.17,6.57c-6.93,0-12.54-2.3-16.79-6.93c-4.27-4.63-6.59-10.91-6.98-18.8
				L1230.3,1440.99z"/>
			<path class="st1" d="M1344.61,1392.83v14.94h-12.06v57.12h-16.23v-57.12h-8.58v-14.94h8.06v-1.97c0-7.6,2.09-13.26,6.28-17
				c4.2-3.72,10.55-5.59,19.06-5.59c0.36,0,0.91,0.02,1.68,0.07c0.77,0.02,1.37,0.05,1.8,0.05v15.08h-1.18
				c-3.81,0-6.52,0.6-8.15,1.85c-1.65,1.25-2.47,3.31-2.47,6.21v1.29H1344.61z"/>
			<path class="st1" d="M1348.35,1428.54c0-5.06,0.91-9.88,2.78-14.44c1.85-4.58,4.56-8.63,8.08-12.16c3.62-3.62,7.7-6.4,12.25-8.35
				c4.53-1.94,9.26-2.93,14.15-2.93c5.2,0,10,0.86,14.39,2.59c4.39,1.73,8.42,4.32,12.09,7.77c3.74,3.62,6.64,7.79,8.7,12.54
				c2.04,4.72,3.07,9.59,3.07,14.58c0,5.49-0.89,10.5-2.69,15.06c-1.77,4.53-4.46,8.63-8.06,12.3c-3.57,3.72-7.65,6.52-12.25,8.42
				c-4.58,1.92-9.54,2.85-14.92,2.85c-5.42,0-10.36-0.96-14.82-2.88c-4.44-1.92-8.51-4.8-12.18-8.66c-3.5-3.74-6.14-7.89-7.91-12.4
				C1349.24,1438.32,1348.35,1433.55,1348.35,1428.54z M1365.64,1428.4c0,6.69,1.82,11.99,5.49,15.9c3.67,3.91,8.66,5.85,14.94,5.85
				c6.21,0,11.15-1.99,14.84-5.99c3.69-3.98,5.54-9.38,5.54-16.14c0-6.07-1.94-11.05-5.8-14.96c-3.86-3.91-8.73-5.88-14.58-5.88
				c-6.02,0-10.93,1.99-14.75,5.95C1367.54,1417.05,1365.64,1422.16,1365.64,1428.4z"/>
			<path class="st1" d="M1468.02,1407.44c-6.5,0.53-11.05,2.23-13.62,5.11c-2.59,2.9-3.86,8.08-3.86,15.61v36.74h-16.79v-72.06
				h15.73v8.32c2.54-3.24,5.3-5.59,8.32-7.1s6.43-2.28,10.22-2.28V1407.44z"/>
			<path class="st1" d="M1504.82,1392.83h17.77l17.55,50.31l19.33-50.31h17.55l-38.92,95.37h-17.29l10.1-25.35L1504.82,1392.83z"/>
			<path class="st1" d="M1578.13,1428.54c0-5.06,0.94-9.88,2.78-14.44c1.87-4.58,4.56-8.63,8.11-12.16c3.62-3.62,7.7-6.4,12.23-8.35
				c4.56-1.94,9.26-2.93,14.15-2.93c5.2,0,10,0.86,14.39,2.59c4.39,1.73,8.42,4.32,12.09,7.77c3.76,3.62,6.67,7.79,8.7,12.54
				c2.06,4.72,3.09,9.59,3.09,14.58c0,5.49-0.91,10.5-2.69,15.06c-1.8,4.53-4.48,8.63-8.06,12.3c-3.6,3.72-7.67,6.52-12.25,8.42
				c-4.58,1.92-9.57,2.85-14.94,2.85c-5.42,0-10.34-0.96-14.8-2.88c-4.46-1.92-8.51-4.8-12.18-8.66c-3.5-3.74-6.14-7.89-7.94-12.4
				C1579.02,1438.32,1578.13,1433.55,1578.13,1428.54z M1595.42,1428.4c0,6.69,1.85,11.99,5.52,15.9c3.67,3.91,8.63,5.85,14.94,5.85
				c6.19,0,11.13-1.99,14.82-5.99c3.69-3.98,5.54-9.38,5.54-16.14c0-6.07-1.92-11.05-5.8-14.96c-3.86-3.91-8.7-5.88-14.56-5.88
				c-6.04,0-10.96,1.99-14.75,5.95C1597.34,1417.05,1595.42,1422.16,1595.42,1428.4z"/>
			<path class="st1" d="M1711.05,1464.89v-7.79c-2.45,3.29-5.25,5.71-8.42,7.31c-3.17,1.58-6.79,2.37-10.84,2.37
				c-9.04,0-15.99-2.76-20.84-8.32c-4.84-5.54-7.27-13.5-7.27-23.91v-41.73h16.95v32.37c0,9.74,1.13,16.38,3.36,19.98
				c2.23,3.57,6.07,5.37,11.51,5.37c5.59,0,9.62-2.01,12.04-6.04c2.42-4,3.62-10.82,3.62-20.43v-31.25h16.52v72.06H1711.05z"/>
		</g>
	</g>
	<g>
		<path class="st1" d="M1697.88,838.04c8.23,8.23,12.34,19.86,12.34,34.91v5.42l-30.7,3.01v-7.82c0-6.02-1.4-10.58-4.21-13.7
			c-2.81-3.11-6.82-4.66-12.04-4.66c-5.22,0-9.23,1.56-12.04,4.66c-2.81,3.12-4.21,7.68-4.21,13.7v2.71c0,6.42,1.9,12.69,5.72,18.81
			c3.81,6.12,10.84,13.5,21.07,22.12c14.64,12.44,24.98,23.68,31,33.71c6.02,10.03,9.03,21.27,9.03,33.71v10.53
			c0,15.05-4.27,26.69-12.79,34.91c-8.53,8.23-20.72,12.34-36.57,12.34c-15.85,0-28.04-4.11-36.56-12.34
			c-8.53-8.23-12.79-19.86-12.79-34.91V981l30.7-3.01v15.05c0,13.24,6.02,19.86,18.06,19.86c12.04,0,18.05-6.62,18.05-19.86v-6.92
			c0-6.82-2.01-13.29-6.02-19.41c-4.02-6.12-11.24-13.59-21.67-22.42c-14.44-12.24-24.58-23.33-30.4-33.26
			c-5.82-9.93-8.73-21.11-8.73-33.55v-4.52c0-15.05,4.11-26.68,12.34-34.91c8.23-8.23,19.96-12.34,35.21-12.34
			C1677.91,825.7,1689.65,829.82,1697.88,838.04z"/>
		<g>
			<path class="st1" d="M994.6,915.79c-2.76-27.6-18.63-74.08-24.15-94.09c-2.84-10.28-4.03-22.74-4.53-32.44l-0.01,0
				c0,0-0.05-0.93-0.12-2.7c-0.1-2.55-0.16-4.83-0.18-6.77c-0.37-19.58-0.05-67.76,9.34-127.23c0,0,1.98-2.9,3.68,0.17l1.99,120.66
				h6.1c0.44-26.65,1.91-81.12,6.75-120.83c0,0,1.97-2.9,3.68,0.17l3.99,120.66h7.65l3.99-120.66c1.7-3.07,3.68-0.17,3.68-0.17
				c4.84,39.71,6.31,94.18,6.75,120.83h5.96l1.99-120.66c1.7-3.07,3.68-0.17,3.68-0.17c8.37,40.1,9.33,94.29,9.24,120.83h0.23
				c0,0,0.69,28.29-4.83,48.3c-5.52,20.01-21.39,66.49-24.15,94.09l16.34,277.47c0,0-11.52,23.04-21.89,28.8
				c-10.37,5.76-27.64-27.64-27.64-27.64L994.6,915.79z"/>
			<path class="st1" d="M394.11,842.4c9.03,9.13,13.54,22.33,13.54,39.58v104.14c0,17.26-4.52,30.45-13.54,39.58
				c-9.03,9.13-22.17,13.69-39.43,13.69h-45.74V828.71h45.74C371.93,828.71,385.08,833.28,394.11,842.4z M340.84,858.2v151.69h12.64
				c7.62,0,13.24-2.11,16.85-6.32c3.61-4.21,5.42-10.73,5.42-19.57v-99.92c0-8.83-1.8-15.35-5.42-19.57
				c-3.61-4.21-9.23-6.32-16.85-6.32H340.84z"/>
			<path class="st1" d="M599.37,1039.39h-32.51l-6.92-47.85h-35.21l-6.92,47.85h-31.9l36.42-210.68h40.63L599.37,1039.39z
				 M541.88,873.86l-12.94,88.79h26.79l-12.94-88.79H541.88z"/>
			<path class="st1" d="M714.33,1039.39h-31.9V828.71h31.9V1039.39z"/>
			<path class="st1" d="M840.74,1009.29H894v30.1h-85.17V828.71h31.9V1009.29z"/>
			<path class="st1" d="M1208.96,839.09c8.73,8.93,13.09,21.32,13.09,37.17v18.96l-30.7,1.51v-17.16c0-16.25-6.02-24.38-18.06-24.38
				c-5.82,0-10.28,1.81-13.39,5.42c-3.12,3.61-4.66,8.93-4.66,15.95v114.97c0,7.02,1.55,12.34,4.66,15.95
				c3.11,3.61,7.57,5.42,13.39,5.42c12.04,0,18.06-8.13,18.06-24.38v-23.47l30.7,1.5v25.28c0,15.85-4.36,28.24-13.09,37.17
				c-8.73,8.93-20.92,13.39-36.57,13.39c-15.45,0-27.49-4.41-36.11-13.24c-8.63-8.83-12.94-21.26-12.94-37.32V876.26
				c0-16.05,4.31-28.49,12.94-37.32c8.62-8.83,20.66-13.24,36.11-13.24C1188.05,825.7,1200.24,830.17,1208.96,839.09z"/>
			<path class="st1" d="M1341.24,1039.39h-31.9V828.71h31.9V1039.39z"/>
			<path class="st1" d="M1532.65,992.14c0,16.25-4.36,28.7-13.09,37.32c-8.73,8.63-20.92,12.94-36.57,12.94
				c-15.25,0-27.23-4.31-35.97-12.94c-8.73-8.62-13.09-21.07-13.09-37.32V828.71h30.7v162.52c0,14.05,6.02,21.07,18.06,21.07
				c12.04,0,18.06-7.02,18.06-21.07V828.71h31.9V992.14z"/>
			<polygon class="st1" points="920.16,1150.92 147.57,1150.92 147.57,721.15 920.16,721.15 920.16,742.71 169.13,742.71 
				169.13,1129.37 920.16,1129.37 			"/>
			<polygon class="st1" points="1851.76,1150.92 1079.17,1150.92 1079.17,1129.37 1830.2,1129.37 1830.2,742.71 1079.17,742.71 
				1079.17,721.15 1851.76,721.15 			"/>
		</g>
	</g>
</g>
</svg>
