<?xml version="1.0" encoding="utf-8"?>
<!-- Generator: Adobe Illustrator 24.1.0, SVG Export Plug-In . SVG Version: 6.00 Build 0)  -->
<svg version="1.1" id="Layer_1" xmlns="http://www.w3.org/2000/svg" xmlns:xlink="http://www.w3.org/1999/xlink" x="0px" y="0px"
	 viewBox="0 0 2000 895.56" style="enable-background:new 0 0 2000 895.56;" xml:space="preserve">
<style type="text/css">
	.st0{fill:#FFFFFF;}
</style>
<g>
	<g>
		<g>
			<path class="st0" d="M331.77,763.3v-27.38h15.52v89.81h-15.52v-5.55c-3.12,2.47-6.43,4.31-9.88,5.52
				c-3.45,1.21-7.2,1.82-11.23,1.82c-4.29,0-8.3-0.68-12.07-2.05c-3.8-1.35-7.18-3.33-10.21-5.92c-4.1-3.52-7.27-7.71-9.46-12.54
				c-2.19-4.85-3.31-9.97-3.31-15.4c0-5.01,1.03-9.83,3.08-14.43c2.03-4.61,4.89-8.6,8.6-11.98c3.1-2.91,6.62-5.13,10.6-6.66
				c4.01-1.51,8.25-2.28,12.77-2.28c4.38,0,8.23,0.58,11.61,1.7C325.62,759.11,328.79,760.88,331.77,763.3z M331.07,792.11
				c0-5.8-1.82-10.63-5.5-14.5c-3.68-3.87-8.3-5.8-13.8-5.8c-5.43,0-10.07,1.98-13.91,5.94c-3.85,3.94-5.76,8.65-5.76,14.12
				c0,5.71,1.91,10.46,5.78,14.29c3.87,3.8,8.76,5.69,14.64,5.69c5.17,0,9.55-1.91,13.17-5.73
				C329.28,802.29,331.07,797.63,331.07,792.11z"/>
			<path class="st0" d="M412.63,825.73v-8.32c-1.91,3.36-4.57,5.85-7.99,7.46c-3.43,1.61-7.81,2.4-13.17,2.4
				c-10.02,0-18.41-3.43-25.15-10.28c-6.73-6.83-10.09-15.33-10.09-25.49c0-4.78,0.84-9.3,2.54-13.59c1.7-4.26,4.08-8.04,7.2-11.28
				c3.4-3.57,7.13-6.22,11.23-7.92c4.12-1.7,8.76-2.56,13.89-2.56c4.94,0,9.18,0.82,12.72,2.47c3.59,1.65,6.43,4.12,8.62,7.46v-8.2
				h15.43v67.86H412.63z M372.41,791.24c0,5.73,1.91,10.51,5.71,14.36c3.8,3.85,8.44,5.76,13.91,5.76c4.99,0,9.35-1.93,13.14-5.8
				c3.78-3.85,5.66-8.39,5.66-13.56c0-5.5-1.89-10.25-5.71-14.22c-3.8-3.96-8.25-5.97-13.35-5.97c-5.34,0-9.9,1.89-13.68,5.66
				C374.3,781.22,372.41,785.81,372.41,791.24z"/>
			<path class="st0" d="M457.24,750.97h-15.43v-15.05h15.43V750.97z M441.81,825.73v-67.86h15.43v67.86H441.81z"/>
			<path class="st0" d="M471.36,825.73v-89.81h15.43v89.81H471.36z"/>
			<path class="st0" d="M492.38,757.87h16.73l16.55,47.38l18.18-47.38h16.55l-36.63,89.81h-16.31l9.51-23.86L492.38,757.87z"/>
			<path class="st0" d="M614.36,781.99c-1.89-3.54-4.29-6.18-7.25-7.95c-2.94-1.77-6.41-2.66-10.46-2.66
				c-5.34,0-9.81,1.93-13.42,5.8c-3.59,3.87-5.38,8.72-5.38,14.54c0,5.78,1.84,10.56,5.52,14.38s8.3,5.73,13.84,5.73
				c4.29,0,7.83-0.91,10.67-2.73c2.84-1.84,4.96-4.59,6.36-8.25h16.85c-2.07,8.32-6.08,14.82-12.03,19.55
				c-5.97,4.73-13.21,7.11-21.72,7.11c-5.03,0-9.67-0.91-13.94-2.68c-4.29-1.79-8.16-4.45-11.61-7.95
				c-3.22-3.29-5.73-7.13-7.55-11.56c-1.79-4.43-2.7-8.9-2.7-13.47c0-4.78,0.84-9.23,2.47-13.4c1.63-4.15,4.08-7.9,7.27-11.21
				c3.54-3.75,7.55-6.6,11.98-8.53s9.23-2.89,14.31-2.89c8.3,0,15.52,2.35,21.58,7.08c6.11,4.73,10.11,11.09,12.05,19.06H614.36z"/>
			<path class="st0" d="M657.61,750.97h-15.43v-15.05h15.43V750.97z M642.18,825.73v-67.86h15.43v67.86H642.18z"/>
			<path class="st0" d="M715.78,825.73v-7.34c-2.31,3.08-4.94,5.38-7.92,6.87c-2.98,1.51-6.39,2.26-10.21,2.26
				c-8.53,0-15.05-2.61-19.62-7.83c-4.57-5.24-6.85-12.75-6.85-22.54v-39.29h15.99v30.48c0,9.16,1.03,15.45,3.12,18.81
				c2.1,3.38,5.73,5.06,10.86,5.06c5.27,0,9.04-1.89,11.33-5.66c2.28-3.8,3.45-10.21,3.45-19.25v-29.43h15.52v67.86H715.78z"/>
			<path class="st0" d="M755.63,803.22v0.93c0,2.98,0.75,5.43,2.28,7.29c1.51,1.89,3.5,2.82,5.92,2.82c2.28,0,4.19-0.7,5.64-2.1
				c1.44-1.4,2.19-3.19,2.19-5.38c0-2-0.54-3.66-1.58-4.96c-1.07-1.28-2.98-2.59-5.76-3.92c-1.56-0.7-3.87-1.65-6.92-2.89
				c-3.03-1.24-4.99-2.21-5.85-2.91c-2.49-2.05-4.36-4.33-5.55-6.87c-1.19-2.52-1.79-5.41-1.79-8.67c0-5.71,2-10.53,6.01-14.5
				c4.01-3.94,8.88-5.92,14.59-5.92c6.06,0,10.84,1.75,14.36,5.24c3.5,3.5,5.43,8.39,5.76,14.68h-14.19v-0.37
				c0-2.17-0.56-3.89-1.68-5.13c-1.14-1.21-2.7-1.84-4.73-1.84c-1.77,0-3.24,0.61-4.4,1.82c-1.17,1.21-1.77,2.73-1.77,4.54
				c0,2.96,3.05,5.71,9.14,8.25c1.61,0.68,2.84,1.19,3.71,1.56c5.85,2.63,9.81,5.45,11.96,8.48c2.14,3.01,3.22,7.08,3.22,12.23
				c0,6.34-2.14,11.56-6.41,15.71c-4.26,4.12-9.67,6.2-16.15,6.2c-6.57,0-11.84-2.19-15.85-6.55c-4.01-4.36-6.2-10.25-6.57-17.71
				L755.63,803.22z"/>
			<path class="st0" d="M865.18,771.62c-6.13,0.51-10.42,2.1-12.84,4.82c-2.42,2.7-3.64,7.6-3.64,14.68v34.61h-15.78v-67.86h14.8
				v7.83c2.38-3.03,4.99-5.27,7.83-6.69s6.06-2.12,9.62-2.12V771.62z"/>
			<path class="st0" d="M883.8,796.81c0.56,4.89,2.49,8.74,5.83,11.56c3.36,2.82,7.69,4.22,13,4.22c3.54,0,6.71-0.75,9.53-2.21
				c2.82-1.49,5.06-3.57,6.69-6.22h17.01c-2.87,7.39-7.18,13.14-12.91,17.22c-5.73,4.1-12.35,6.15-19.9,6.15
				c-5.03,0-9.69-0.91-13.96-2.68c-4.26-1.79-8.09-4.45-11.44-7.95c-3.22-3.31-5.69-7.18-7.46-11.56
				c-1.77-4.38-2.66-8.88-2.66-13.47c0-4.73,0.79-9.18,2.42-13.35s4.01-7.95,7.18-11.26c3.47-3.68,7.36-6.48,11.75-8.46
				c4.33-1.98,8.86-2.96,13.52-2.96c5.87,0,11.37,1.33,16.45,4.01c5.1,2.68,9.44,6.43,13,11.28c2.19,2.94,3.82,6.2,4.85,9.81
				c1.07,3.64,1.58,7.78,1.58,12.47c0,0.37-0.02,0.93-0.05,1.7c-0.05,0.75-0.09,1.33-0.09,1.7H883.8z M921.27,784.28
				c-1.37-4.52-3.64-7.97-6.83-10.32c-3.19-2.38-7.2-3.54-12.05-3.54c-4.19,0-7.97,1.26-11.3,3.82c-3.33,2.54-5.57,5.9-6.73,10.04
				H921.27z"/>
			<path class="st0" d="M996.87,781.99c-1.86-3.54-4.29-6.18-7.22-7.95s-6.43-2.66-10.46-2.66c-5.34,0-9.81,1.93-13.42,5.8
				c-3.61,3.87-5.38,8.72-5.38,14.54c0,5.78,1.82,10.56,5.5,14.38c3.68,3.82,8.3,5.73,13.84,5.73c4.29,0,7.85-0.91,10.67-2.73
				c2.84-1.84,4.99-4.59,6.39-8.25h16.83c-2.05,8.32-6.06,14.82-12.02,19.55c-5.97,4.73-13.19,7.11-21.72,7.11
				c-5.03,0-9.65-0.91-13.94-2.68c-4.29-1.79-8.16-4.45-11.61-7.95c-3.22-3.29-5.71-7.13-7.53-11.56c-1.79-4.43-2.73-8.9-2.73-13.47
				c0-4.78,0.84-9.23,2.47-13.4c1.65-4.15,4.1-7.9,7.29-11.21c3.52-3.75,7.53-6.6,11.96-8.53c4.45-1.93,9.23-2.89,14.31-2.89
				c8.32,0,15.52,2.35,21.6,7.08c6.08,4.73,10.09,11.09,12.05,19.06H996.87z"/>
			<path class="st0" d="M1040.13,750.97h-15.43v-15.05h15.43V750.97z M1024.7,825.73v-67.86h15.43v67.86H1024.7z"/>
			<path class="st0" d="M1068.63,820.3v27.38h-15.54v-89.81h15.54v5.69c3.17-2.52,6.48-4.38,9.95-5.59
				c3.45-1.21,7.18-1.82,11.14-1.82c4.29,0,8.32,0.68,12.12,2c3.78,1.33,7.18,3.33,10.16,5.97c4.08,3.52,7.22,7.69,9.41,12.51
				c2.19,4.8,3.31,9.93,3.31,15.36c0,5.06-1.03,9.88-3.01,14.5s-4.82,8.58-8.48,11.91c-3.12,2.96-6.69,5.22-10.7,6.78
				c-4.01,1.56-8.25,2.35-12.68,2.35c-4.33,0-8.2-0.58-11.63-1.77C1074.8,824.59,1071.59,822.77,1068.63,820.3z M1069.26,791.5
				c0,5.8,1.86,10.63,5.59,14.52c3.75,3.89,8.39,5.83,13.89,5.83c5.43,0,10.07-1.96,13.91-5.92c3.85-3.94,5.76-8.67,5.76-14.19
				c0-5.71-1.91-10.46-5.78-14.24s-8.76-5.69-14.64-5.69c-5.17,0-9.6,1.91-13.24,5.71C1071.07,781.34,1069.26,785.98,1069.26,791.5z
				"/>
			<path class="st0" d="M1147.84,796.81c0.54,4.89,2.47,8.74,5.83,11.56s7.69,4.22,13,4.22c3.52,0,6.71-0.75,9.51-2.21
				c2.84-1.49,5.06-3.57,6.71-6.22h17.01c-2.89,7.39-7.18,13.14-12.91,17.22c-5.73,4.1-12.37,6.15-19.9,6.15
				c-5.06,0-9.72-0.91-13.98-2.68c-4.24-1.79-8.06-4.45-11.42-7.95c-3.22-3.31-5.71-7.18-7.48-11.56
				c-1.77-4.38-2.66-8.88-2.66-13.47c0-4.73,0.82-9.18,2.45-13.35s4.01-7.95,7.18-11.26c3.45-3.68,7.36-6.48,11.72-8.46
				c4.36-1.98,8.88-2.96,13.52-2.96c5.87,0,11.37,1.33,16.48,4.01c5.08,2.68,9.42,6.43,13,11.28c2.19,2.94,3.8,6.2,4.85,9.81
				c1.05,3.64,1.58,7.78,1.58,12.47c0,0.37-0.05,0.93-0.07,1.7c-0.05,0.75-0.07,1.33-0.07,1.7H1147.84z M1185.29,784.28
				c-1.38-4.52-3.64-7.97-6.83-10.32c-3.17-2.38-7.2-3.54-12.05-3.54c-4.19,0-7.95,1.26-11.3,3.82c-3.31,2.54-5.55,5.9-6.71,10.04
				H1185.29z"/>
			<path class="st0" d="M1222.41,803.22v0.93c0,2.98,0.77,5.43,2.28,7.29c1.54,1.89,3.5,2.82,5.92,2.82c2.31,0,4.19-0.7,5.64-2.1
				c1.47-1.4,2.19-3.19,2.19-5.38c0-2-0.51-3.66-1.58-4.96c-1.07-1.28-2.98-2.59-5.73-3.92c-1.58-0.7-3.87-1.65-6.92-2.89
				c-3.05-1.24-5.01-2.21-5.85-2.91c-2.52-2.05-4.38-4.33-5.55-6.87c-1.21-2.52-1.82-5.41-1.82-8.67c0-5.71,2-10.53,6.01-14.5
				c4.03-3.94,8.9-5.92,14.61-5.92c6.04,0,10.84,1.75,14.33,5.24c3.52,3.5,5.45,8.39,5.78,14.68h-14.19v-0.37
				c0-2.17-0.58-3.89-1.7-5.13c-1.12-1.21-2.7-1.84-4.71-1.84c-1.77,0-3.26,0.61-4.43,1.82c-1.17,1.21-1.75,2.73-1.75,4.54
				c0,2.96,3.05,5.71,9.11,8.25c1.63,0.68,2.84,1.19,3.73,1.56c5.83,2.63,9.81,5.45,11.96,8.48c2.14,3.01,3.19,7.08,3.19,12.23
				c0,6.34-2.12,11.56-6.39,15.71c-4.29,4.12-9.69,6.2-16.17,6.2c-6.55,0-11.82-2.19-15.82-6.55c-4.01-4.36-6.2-10.25-6.57-17.71
				L1222.41,803.22z"/>
			<path class="st0" d="M1330.08,757.87v14.08h-11.37v53.79h-15.29v-53.79h-8.06v-14.08h7.57v-1.84c0-7.15,1.98-12.49,5.92-16.01
				c3.94-3.52,9.95-5.29,17.97-5.29c0.33,0,0.84,0.02,1.56,0.07c0.72,0.05,1.28,0.07,1.7,0.07v14.19h-1.12
				c-3.59,0-6.15,0.58-7.69,1.75s-2.31,3.12-2.31,5.83v1.24H1330.08z"/>
			<path class="st0" d="M1333.57,791.5c0-4.78,0.89-9.3,2.63-13.61c1.75-4.29,4.29-8.11,7.62-11.44c3.4-3.4,7.27-6.04,11.54-7.85
				c4.26-1.84,8.72-2.75,13.31-2.75c4.89,0,9.42,0.82,13.56,2.42c4.12,1.63,7.92,4.08,11.37,7.32c3.54,3.43,6.27,7.36,8.2,11.82
				c1.93,4.45,2.89,9.04,2.89,13.73c0,5.17-0.84,9.9-2.52,14.19c-1.68,4.26-4.22,8.13-7.6,11.58c-3.36,3.5-7.22,6.15-11.51,7.95
				c-4.33,1.77-9.02,2.68-14.08,2.68c-5.1,0-9.74-0.91-13.94-2.73c-4.19-1.79-8.02-4.52-11.49-8.13c-3.29-3.54-5.76-7.43-7.46-11.7
				C1334.41,800.73,1333.57,796.23,1333.57,791.5z M1349.89,791.38c0,6.29,1.72,11.28,5.17,14.94c3.45,3.68,8.13,5.52,14.05,5.52
				c5.85,0,10.51-1.86,13.96-5.64c3.5-3.75,5.22-8.83,5.22-15.19c0-5.73-1.82-10.42-5.45-14.1c-3.64-3.68-8.2-5.52-13.73-5.52
				c-5.66,0-10.3,1.86-13.87,5.57C1351.66,780.69,1349.89,785.49,1349.89,791.38z"/>
			<path class="st0" d="M1446.27,771.62c-6.11,0.51-10.39,2.1-12.82,4.82c-2.42,2.7-3.64,7.6-3.64,14.68v34.61h-15.8v-67.86h14.82
				v7.83c2.38-3.03,4.99-5.27,7.83-6.69s6.04-2.12,9.6-2.12V771.62z"/>
			<path class="st0" d="M1480.95,757.87h16.73l16.55,47.38l18.18-47.38h16.55l-36.63,89.81H1496l9.51-23.86L1480.95,757.87z"/>
			<path class="st0" d="M1549.98,791.5c0-4.78,0.89-9.3,2.63-13.61c1.75-4.29,4.29-8.11,7.62-11.44c3.4-3.4,7.27-6.04,11.54-7.85
				c4.26-1.84,8.72-2.75,13.31-2.75c4.89,0,9.41,0.82,13.56,2.42c4.12,1.63,7.92,4.08,11.37,7.32c3.54,3.43,6.27,7.36,8.2,11.82
				c1.93,4.45,2.89,9.04,2.89,13.73c0,5.17-0.84,9.9-2.52,14.19c-1.68,4.26-4.22,8.13-7.6,11.58c-3.36,3.5-7.22,6.15-11.51,7.95
				c-4.33,1.77-9.02,2.68-14.08,2.68c-5.1,0-9.74-0.91-13.94-2.73c-4.19-1.79-8.02-4.52-11.49-8.13c-3.29-3.54-5.76-7.43-7.46-11.7
				C1550.82,800.73,1549.98,796.23,1549.98,791.5z M1566.29,791.38c0,6.29,1.72,11.28,5.17,14.94c3.45,3.68,8.13,5.52,14.05,5.52
				c5.85,0,10.51-1.86,13.96-5.64c3.5-3.75,5.22-8.83,5.22-15.19c0-5.73-1.82-10.42-5.45-14.1c-3.64-3.68-8.2-5.52-13.73-5.52
				c-5.66,0-10.3,1.86-13.87,5.57C1568.06,780.69,1566.29,785.49,1566.29,791.38z"/>
			<path class="st0" d="M1675.17,825.73v-7.34c-2.33,3.08-4.96,5.38-7.92,6.87c-2.98,1.51-6.39,2.26-10.23,2.26
				c-8.51,0-15.03-2.61-19.6-7.83c-4.57-5.24-6.85-12.75-6.85-22.54v-39.29h15.96v30.48c0,9.16,1.05,15.45,3.15,18.81
				c2.1,3.38,5.73,5.06,10.86,5.06c5.27,0,9.04-1.89,11.33-5.66c2.28-3.8,3.43-10.21,3.43-19.25v-29.43h15.54v67.86H1675.17z"/>
		</g>
	</g>
	<g>
		<path class="st0" d="M1760.84,261.31c9.11,9.11,13.66,21.99,13.66,38.65v5.99l-33.98,3.33v-8.66c0-6.66-1.56-11.71-4.67-15.16
			c-3.11-3.44-7.55-5.16-13.32-5.16c-5.78,0-10.22,1.72-13.33,5.16c-3.11,3.45-4.66,8.5-4.66,15.16v3c0,7.11,2.1,14.05,6.33,20.82
			c4.21,6.78,12,14.94,23.32,24.49c16.21,13.78,27.65,26.21,34.32,37.31c6.66,11.11,9.99,23.54,9.99,37.31v11.66
			c0,16.66-4.72,29.54-14.16,38.65c-9.44,9.11-22.94,13.66-40.48,13.66c-17.55,0-31.04-4.55-40.48-13.66
			c-9.44-9.11-14.16-21.99-14.16-38.65v-15.66l33.98-3.33v16.66c0,14.66,6.66,21.99,19.99,21.99c13.32,0,19.99-7.33,19.99-21.99
			v-7.66c0-7.55-2.22-14.72-6.66-21.49c-4.45-6.78-12.44-15.04-23.99-24.82c-15.99-13.54-27.21-25.82-33.65-36.82
			c-6.44-10.99-9.66-23.37-9.66-37.14v-5c0-16.66,4.55-29.54,13.66-38.65c9.11-9.11,22.1-13.66,38.98-13.66
			C1738.73,247.66,1751.73,252.21,1760.84,261.31z"/>
		<g>
			<path class="st0" d="M982.31,347.38c-3.06-30.56-20.63-82.01-26.74-104.16c-3.14-11.38-4.46-25.18-5.01-35.91l-0.01,0.01
				c0,0-0.06-1.02-0.13-2.98c-0.11-2.82-0.17-5.35-0.2-7.49c-0.41-21.67-0.05-75.01,10.34-140.85c0,0,2.19-3.21,4.07,0.19
				l2.2,133.57h6.75c0.49-29.5,2.12-89.8,7.47-133.75c0,0,2.19-3.21,4.07,0.19l4.42,133.57H998l4.42-133.57
				c1.88-3.4,4.07-0.19,4.07-0.19c5.35,43.96,6.98,104.26,7.47,133.75h6.6l2.2-133.57c1.88-3.4,4.07-0.19,4.07-0.19
				c9.26,44.39,10.33,104.37,10.23,133.75h0.25c0,0,0.76,31.32-5.35,53.47c-6.11,22.15-23.68,73.61-26.74,104.16l18.09,307.16
				c0,0-12.75,25.5-24.23,31.88c-11.48,6.38-30.6-30.6-30.6-30.6L982.31,347.38z"/>
			<path class="st0" d="M317.57,266.14c9.99,10.11,14.99,24.71,14.99,43.81v115.28c0,19.1-5,33.71-14.99,43.81
				c-9.99,10.11-24.54,15.16-43.65,15.16h-50.64V250.99h50.64C293.02,250.99,307.57,256.04,317.57,266.14z M258.6,283.64v167.92
				h13.99c8.44,0,14.66-2.34,18.66-7c4-4.67,5.99-11.88,5.99-21.66V312.29c0-9.77-2-16.99-5.99-21.66c-4-4.66-10.22-7-18.66-7H258.6
				z"/>
			<path class="st0" d="M544.79,484.2H508.8l-7.66-52.97h-38.98l-7.66,52.97h-35.32l40.32-233.22h44.98L544.79,484.2z
				 M481.15,300.96l-14.33,98.28h29.65l-14.33-98.28H481.15z"/>
			<path class="st0" d="M672.06,484.2h-35.32V250.99h35.32V484.2z"/>
			<path class="st0" d="M811.98,450.89h58.97v33.32h-94.29V250.99h35.32V450.89z"/>
			<path class="st0" d="M1219.61,262.48c9.67,9.89,14.49,23.61,14.49,41.15v20.99l-33.98,1.67v-18.99
				c0-17.99-6.66-26.99-19.99-26.99c-6.44,0-11.38,2-14.82,6c-3.45,4-5.16,9.89-5.16,17.66v127.27c0,7.78,1.71,13.66,5.16,17.66
				c3.44,4,8.38,6,14.82,6c13.33,0,19.99-9,19.99-26.99v-25.99l33.98,1.66v27.99c0,17.55-4.83,31.26-14.49,41.15
				c-9.66,9.89-23.15,14.82-40.48,14.82c-17.1,0-30.43-4.88-39.98-14.66c-9.55-9.77-14.33-23.54-14.33-41.31V303.63
				c0-17.77,4.77-31.53,14.33-41.31c9.55-9.77,22.88-14.66,39.98-14.66C1196.46,247.66,1209.95,252.6,1219.61,262.48z"/>
			<path class="st0" d="M1366.04,484.2h-35.32V250.99h35.32V484.2z"/>
			<path class="st0" d="M1577.93,431.9c0,17.99-4.83,31.77-14.49,41.31c-9.67,9.55-23.16,14.33-40.48,14.33
				c-16.88,0-30.15-4.77-39.81-14.33c-9.66-9.55-14.49-23.32-14.49-41.31V250.99h33.98V430.9c0,15.55,6.67,23.32,19.99,23.32
				c13.33,0,19.99-7.77,19.99-23.32V250.99h35.31V431.9z"/>
			<polygon class="st0" points="899.91,607.67 44.66,607.67 44.66,131.92 899.91,131.92 899.91,155.78 68.52,155.78 68.52,583.81 
				899.91,583.81 			"/>
			<polygon class="st0" points="1931.18,607.67 1075.93,607.67 1075.93,583.81 1907.32,583.81 1907.32,155.78 1075.93,155.78 
				1075.93,131.92 1931.18,131.92 			"/>
		</g>
	</g>
</g>
</svg>
