<?xml version="1.0" encoding="utf-8"?>
<!-- Generator: Adobe Illustrator 24.1.0, SVG Export Plug-In . SVG Version: 6.00 Build 0)  -->
<svg version="1.1" id="Layer_1" xmlns="http://www.w3.org/2000/svg" xmlns:xlink="http://www.w3.org/1999/xlink" x="0px" y="0px"
	 viewBox="0 0 2000 711.93" style="enable-background:new 0 0 2000 711.93;" xml:space="preserve">
<style type="text/css">
	.st0{fill:url(#SVGID_1_);}
	.st1{fill:url(#SVGID_2_);}
	.st2{fill:url(#SVGID_3_);}
	.st3{fill:url(#SVGID_4_);}
	.st4{fill:url(#SVGID_5_);}
	.st5{fill:url(#SVGID_6_);}
	.st6{fill:url(#SVGID_7_);}
	.st7{fill:url(#SVGID_8_);}
	.st8{fill:url(#SVGID_9_);}
	.st9{fill:url(#SVGID_10_);}
	.st10{fill:url(#SVGID_11_);}
</style>
<g>
	
		<linearGradient id="SVGID_1_" gradientUnits="userSpaceOnUse" x1="1723.8597" y1="83.6256" x2="1723.8597" y2="698.3886" gradientTransform="matrix(1 0 0 -1 0 858.5711)">
		<stop  offset="0" style="stop-color:#EF465F"/>
		<stop  offset="1" style="stop-color:#E0881A"/>
	</linearGradient>
	<path class="st0" d="M1760.84,245.46c9.11,9.11,13.66,21.99,13.66,38.65v5.99l-33.98,3.33v-8.66c0-6.66-1.56-11.71-4.67-15.16
		c-3.11-3.44-7.55-5.16-13.32-5.16c-5.78,0-10.22,1.72-13.33,5.16c-3.11,3.45-4.66,8.5-4.66,15.16v3c0,7.11,2.1,14.05,6.33,20.82
		c4.21,6.78,12,14.94,23.32,24.49c16.21,13.78,27.65,26.21,34.32,37.31c6.66,11.11,9.99,23.54,9.99,37.31v11.66
		c0,16.66-4.72,29.54-14.16,38.65c-9.44,9.11-22.94,13.66-40.48,13.66c-17.55,0-31.04-4.55-40.48-13.66s-14.16-21.99-14.16-38.65
		V403.7l33.98-3.33v16.66c0,14.66,6.66,21.99,19.99,21.99c13.32,0,19.99-7.33,19.99-21.99v-7.66c0-7.55-2.22-14.72-6.66-21.49
		c-4.45-6.78-12.44-15.04-23.99-24.82c-15.99-13.54-27.21-25.82-33.65-36.82c-6.44-10.99-9.66-23.37-9.66-37.14v-5
		c0-16.66,4.55-29.54,13.66-38.65c9.11-9.11,22.1-13.66,38.98-13.66C1738.73,231.81,1751.73,236.36,1760.84,245.46z"/>
	<g>
		
			<linearGradient id="SVGID_2_" gradientUnits="userSpaceOnUse" x1="993.7292" y1="83.6256" x2="993.7292" y2="698.3886" gradientTransform="matrix(1 0 0 -1 0 858.5711)">
			<stop  offset="0" style="stop-color:#EF465F"/>
			<stop  offset="1" style="stop-color:#E0881A"/>
		</linearGradient>
		<path class="st1" d="M982.31,331.53c-3.06-30.56-20.63-82.01-26.74-104.16c-3.14-11.38-4.46-25.18-5.01-35.91l-0.01,0.01
			c0,0-0.06-1.02-0.13-2.98c-0.11-2.82-0.17-5.35-0.2-7.49c-0.41-21.67-0.05-75.01,10.34-140.85c0,0,2.19-3.21,4.07,0.19l2.2,133.57
			h6.75c0.49-29.5,2.12-89.8,7.47-133.75c0,0,2.19-3.21,4.07,0.19l4.42,133.57H998l4.42-133.57c1.88-3.4,4.07-0.19,4.07-0.19
			c5.35,43.96,6.98,104.26,7.47,133.75h6.6l2.2-133.57c1.88-3.4,4.07-0.19,4.07-0.19c9.26,44.39,10.33,104.37,10.23,133.75h0.25
			c0,0,0.76,31.32-5.35,53.47c-6.11,22.15-23.68,73.61-26.74,104.16l18.09,307.16c0,0-12.75,25.5-24.23,31.88s-30.6-30.6-30.6-30.6
			L982.31,331.53z"/>
		
			<linearGradient id="SVGID_3_" gradientUnits="userSpaceOnUse" x1="277.92" y1="83.6256" x2="277.92" y2="698.3886" gradientTransform="matrix(1 0 0 -1 0 858.5711)">
			<stop  offset="0" style="stop-color:#EF465F"/>
			<stop  offset="1" style="stop-color:#E0881A"/>
		</linearGradient>
		<path class="st2" d="M317.57,250.29c9.99,10.11,14.99,24.71,14.99,43.81v115.29c0,19.1-5,33.71-14.99,43.81
			c-9.99,10.11-24.54,15.16-43.65,15.16h-50.64V235.14h50.64C293.02,235.14,307.57,240.19,317.57,250.29z M258.6,267.79v167.92
			h13.99c8.44,0,14.66-2.34,18.66-7c4-4.67,5.99-11.88,5.99-21.66V296.44c0-9.77-2-16.99-5.99-21.66c-4-4.66-10.22-7-18.66-7
			L258.6,267.79L258.6,267.79z"/>
		
			<linearGradient id="SVGID_4_" gradientUnits="userSpaceOnUse" x1="481.985" y1="83.6256" x2="481.985" y2="698.3886" gradientTransform="matrix(1 0 0 -1 0 858.5711)">
			<stop  offset="0" style="stop-color:#EF465F"/>
			<stop  offset="1" style="stop-color:#E0881A"/>
		</linearGradient>
		<path class="st3" d="M544.79,468.35H508.8l-7.66-52.97h-38.98l-7.66,52.97h-35.32l40.32-233.22h44.98L544.79,468.35z
			 M481.15,285.11l-14.33,98.28h29.65l-14.33-98.28L481.15,285.11L481.15,285.11z"/>
		
			<linearGradient id="SVGID_5_" gradientUnits="userSpaceOnUse" x1="654.4" y1="83.6256" x2="654.4" y2="698.3886" gradientTransform="matrix(1 0 0 -1 0 858.5711)">
			<stop  offset="0" style="stop-color:#EF465F"/>
			<stop  offset="1" style="stop-color:#E0881A"/>
		</linearGradient>
		<path class="st4" d="M672.06,468.35h-35.32V235.14h35.32V468.35z"/>
		
			<linearGradient id="SVGID_6_" gradientUnits="userSpaceOnUse" x1="823.805" y1="83.6256" x2="823.805" y2="698.3886" gradientTransform="matrix(1 0 0 -1 0 858.5711)">
			<stop  offset="0" style="stop-color:#EF465F"/>
			<stop  offset="1" style="stop-color:#E0881A"/>
		</linearGradient>
		<path class="st5" d="M811.98,435.04h58.97v33.32h-94.29V235.14h35.32V435.04z"/>
		
			<linearGradient id="SVGID_7_" gradientUnits="userSpaceOnUse" x1="1179.46" y1="83.6256" x2="1179.46" y2="698.3886" gradientTransform="matrix(1 0 0 -1 0 858.5711)">
			<stop  offset="0" style="stop-color:#EF465F"/>
			<stop  offset="1" style="stop-color:#E0881A"/>
		</linearGradient>
		<path class="st6" d="M1219.61,246.63c9.67,9.89,14.49,23.61,14.49,41.15v20.99l-33.98,1.67v-18.99c0-17.99-6.66-26.99-19.99-26.99
			c-6.44,0-11.38,2-14.82,6c-3.45,4-5.16,9.89-5.16,17.66v127.27c0,7.78,1.71,13.66,5.16,17.66c3.44,4,8.38,6,14.82,6
			c13.33,0,19.99-9,19.99-26.99v-25.99l33.98,1.66v27.99c0,17.55-4.83,31.26-14.49,41.15c-9.66,9.89-23.15,14.82-40.48,14.82
			c-17.1,0-30.43-4.88-39.98-14.66c-9.55-9.77-14.33-23.54-14.33-41.31V287.78c0-17.77,4.77-31.53,14.33-41.31
			c9.55-9.77,22.88-14.66,39.98-14.66C1196.46,231.81,1209.95,236.75,1219.61,246.63z"/>
		
			<linearGradient id="SVGID_8_" gradientUnits="userSpaceOnUse" x1="1348.38" y1="83.6256" x2="1348.38" y2="698.3886" gradientTransform="matrix(1 0 0 -1 0 858.5711)">
			<stop  offset="0" style="stop-color:#EF465F"/>
			<stop  offset="1" style="stop-color:#E0881A"/>
		</linearGradient>
		<path class="st7" d="M1366.04,468.35h-35.32V235.14h35.32V468.35z"/>
		
			<linearGradient id="SVGID_9_" gradientUnits="userSpaceOnUse" x1="1523.295" y1="83.6256" x2="1523.295" y2="698.3886" gradientTransform="matrix(1 0 0 -1 0 858.5711)">
			<stop  offset="0" style="stop-color:#EF465F"/>
			<stop  offset="1" style="stop-color:#E0881A"/>
		</linearGradient>
		<path class="st8" d="M1577.93,416.05c0,17.99-4.83,31.77-14.49,41.31c-9.67,9.55-23.16,14.33-40.48,14.33
			c-16.88,0-30.15-4.77-39.81-14.33c-9.66-9.55-14.49-23.32-14.49-41.31V235.14h33.98v179.91c0,15.55,6.67,23.32,19.99,23.32
			c13.33,0,19.99-7.77,19.99-23.32V235.14h35.31V416.05z"/>
		
			<linearGradient id="SVGID_10_" gradientUnits="userSpaceOnUse" x1="472.285" y1="83.6256" x2="472.285" y2="698.3886" gradientTransform="matrix(1 0 0 -1 0 858.5711)">
			<stop  offset="0" style="stop-color:#EF465F"/>
			<stop  offset="1" style="stop-color:#E0881A"/>
		</linearGradient>
		<polygon class="st9" points="899.91,591.83 44.66,591.83 44.66,116.07 899.91,116.07 899.91,139.93 68.52,139.93 68.52,567.96 
			899.91,567.96 		"/>
		
			<linearGradient id="SVGID_11_" gradientUnits="userSpaceOnUse" x1="122.3026" y1="83.6256" x2="122.3026" y2="698.3886" gradientTransform="matrix(-1 0 0 -1 1625.8577 858.5711)">
			<stop  offset="0" style="stop-color:#EF465F"/>
			<stop  offset="1" style="stop-color:#E0881A"/>
		</linearGradient>
		<polygon class="st10" points="1931.18,591.83 1075.93,591.83 1075.93,567.96 1907.32,567.96 1907.32,139.93 1075.93,139.93 
			1075.93,116.07 1931.18,116.07 		"/>
	</g>
</g>
</svg>
