<?xml version="1.0" encoding="utf-8"?>
<!-- Generator: Adobe Illustrator 24.1.0, SVG Export Plug-In . SVG Version: 6.00 Build 0)  -->
<svg version="1.1" id="Layer_1" xmlns="http://www.w3.org/2000/svg" xmlns:xlink="http://www.w3.org/1999/xlink" x="0px" y="0px"
	 viewBox="0 0 2000 2000" style="enable-background:new 0 0 2000 2000;" xml:space="preserve">
<style type="text/css">
	.st0{fill:url(#SVGID_1_);}
	.st1{fill:#FFFFFF;}
</style>
<g>
	<linearGradient id="SVGID_1_" gradientUnits="userSpaceOnUse" x1="1285.6211" y1="-110.1498" x2="714.3789" y2="2110.1499">
		<stop  offset="0" style="stop-color:#EF465F"/>
		<stop  offset="1" style="stop-color:#E0881A"/>
	</linearGradient>
	<path class="st0" d="M1754.51,1982.05H245.49c-125.66,0-227.53-101.87-227.53-227.53V245.49c0-125.66,101.87-227.53,227.53-227.53
		h1509.03c125.66,0,227.53,101.87,227.53,227.53v1509.03C1982.05,1880.18,1880.18,1982.05,1754.51,1982.05z"/>
	<path class="st1" d="M970.56,957.01c-7.88-78.77-53.17-211.41-68.92-268.52c-8.1-29.34-11.51-64.91-12.91-92.57l-0.02,0.01
		c0,0-0.15-2.64-0.34-7.69c-0.29-7.28-0.45-13.8-0.53-19.32c-1.07-55.86-0.13-193.36,26.64-363.09c0,0,5.64-8.28,10.49,0.48
		l5.67,344.33h17.4c1.26-76.04,5.46-231.49,19.26-344.81c0,0,5.64-8.28,10.49,0.48l11.38,344.33h21.83l11.38-344.33
		c4.86-8.76,10.49-0.48,10.49-0.48c13.8,113.32,18,268.77,19.26,344.81h17.01l5.67-344.33c4.86-8.76,10.49-0.48,10.49-0.48
		c23.87,114.42,26.64,269.07,26.38,344.81h0.65c0,0,1.97,80.74-13.79,137.85c-15.75,57.11-61.05,189.75-68.92,268.52l46.63,791.83
		c0,0-32.87,65.74-62.46,82.18c-29.58,16.44-78.89-78.89-78.89-78.89L970.56,957.01z"/>
</g>
</svg>
