<?xml version="1.0" encoding="utf-8"?>
<!-- Generator: Adobe Illustrator 24.1.0, SVG Export Plug-In . SVG Version: 6.00 Build 0)  -->
<svg version="1.1" id="Layer_1" xmlns="http://www.w3.org/2000/svg" xmlns:xlink="http://www.w3.org/1999/xlink" x="0px" y="0px"
	 viewBox="0 0 2000 707.97" style="enable-background:new 0 0 2000 707.97;" xml:space="preserve">
<style type="text/css">
	.st0{fill:#939598;}
</style>
<g>
	<path class="st0" d="M1760.84,242.81c9.11,9.11,13.66,21.99,13.66,38.65v5.99l-33.98,3.33v-8.66c0-6.66-1.56-11.71-4.67-15.16
		c-3.11-3.44-7.55-5.16-13.32-5.16c-5.78,0-10.22,1.72-13.33,5.16c-3.11,3.45-4.66,8.5-4.66,15.16v3c0,7.11,2.1,14.05,6.33,20.82
		c4.21,6.78,12,14.94,23.32,24.49c16.21,13.78,27.65,26.21,34.32,37.31c6.66,11.11,9.99,23.54,9.99,37.31v11.66
		c0,16.66-4.72,29.54-14.16,38.65c-9.44,9.11-22.94,13.66-40.48,13.66c-17.55,0-31.04-4.55-40.48-13.66s-14.16-21.99-14.16-38.65
		v-15.66l33.98-3.33v16.66c0,14.66,6.66,21.99,19.99,21.99c13.32,0,19.99-7.33,19.99-21.99v-7.66c0-7.55-2.22-14.72-6.66-21.49
		c-4.45-6.78-12.44-15.04-23.99-24.82c-15.99-13.54-27.21-25.82-33.65-36.82c-6.44-10.99-9.66-23.37-9.66-37.14v-5
		c0-16.66,4.55-29.54,13.66-38.65c9.11-9.11,22.1-13.66,38.98-13.66C1738.73,229.16,1751.73,233.71,1760.84,242.81z"/>
	<g>
		<path class="st0" d="M982.31,328.88c-3.06-30.56-20.63-82.01-26.74-104.16c-3.14-11.38-4.46-25.18-5.01-35.91l-0.01,0.01
			c0,0-0.06-1.02-0.13-2.98c-0.11-2.82-0.17-5.35-0.2-7.49c-0.41-21.67-0.05-75.01,10.34-140.85c0,0,2.19-3.21,4.07,0.19l2.2,133.57
			h6.75c0.49-29.5,2.12-89.8,7.47-133.75c0,0,2.19-3.21,4.07,0.19l4.42,133.57H998l4.42-133.57c1.88-3.4,4.07-0.19,4.07-0.19
			c5.35,43.96,6.98,104.26,7.47,133.75h6.6l2.2-133.57c1.88-3.4,4.07-0.19,4.07-0.19c9.26,44.39,10.33,104.37,10.23,133.75h0.25
			c0,0,0.76,31.32-5.35,53.47c-6.11,22.15-23.68,73.61-26.74,104.16l18.09,307.16c0,0-12.75,25.5-24.23,31.88s-30.6-30.6-30.6-30.6
			L982.31,328.88z"/>
		<path class="st0" d="M317.57,247.64c9.99,10.11,14.99,24.71,14.99,43.81v115.29c0,19.1-5,33.71-14.99,43.81
			c-9.99,10.11-24.54,15.16-43.65,15.16h-50.64V232.49h50.64C293.02,232.49,307.57,237.54,317.57,247.64z M258.6,265.14v167.92
			h13.99c8.44,0,14.66-2.34,18.66-7c4-4.67,5.99-11.88,5.99-21.66V293.79c0-9.77-2-16.99-5.99-21.66c-4-4.66-10.22-7-18.66-7
			L258.6,265.14L258.6,265.14z"/>
		<path class="st0" d="M544.79,465.7H508.8l-7.66-52.97h-38.98l-7.66,52.97h-35.32l40.32-233.22h44.98L544.79,465.7z M481.15,282.46
			l-14.33,98.28h29.65l-14.33-98.28L481.15,282.46L481.15,282.46z"/>
		<path class="st0" d="M672.06,465.7h-35.32V232.49h35.32V465.7z"/>
		<path class="st0" d="M811.98,432.39h58.97v33.32h-94.29V232.49h35.32V432.39z"/>
		<path class="st0" d="M1219.61,243.98c9.67,9.89,14.49,23.61,14.49,41.15v20.99l-33.98,1.67V288.8c0-17.99-6.66-26.99-19.99-26.99
			c-6.44,0-11.38,2-14.82,6c-3.45,4-5.16,9.89-5.16,17.66v127.27c0,7.78,1.71,13.66,5.16,17.66c3.44,4,8.38,6,14.82,6
			c13.33,0,19.99-9,19.99-26.99v-25.99l33.98,1.66v27.99c0,17.55-4.83,31.26-14.49,41.15c-9.66,9.89-23.15,14.82-40.48,14.82
			c-17.1,0-30.43-4.88-39.98-14.66c-9.55-9.77-14.33-23.54-14.33-41.31V285.13c0-17.77,4.77-31.53,14.33-41.31
			c9.55-9.77,22.88-14.66,39.98-14.66C1196.46,229.16,1209.95,234.1,1219.61,243.98z"/>
		<path class="st0" d="M1366.04,465.7h-35.32V232.49h35.32V465.7z"/>
		<path class="st0" d="M1577.93,413.4c0,17.99-4.83,31.77-14.49,41.31c-9.67,9.55-23.16,14.33-40.48,14.33
			c-16.88,0-30.15-4.77-39.81-14.33c-9.66-9.55-14.49-23.32-14.49-41.31V232.49h33.98V412.4c0,15.55,6.67,23.32,19.99,23.32
			c13.33,0,19.99-7.77,19.99-23.32V232.49h35.31V413.4z"/>
		<polygon class="st0" points="899.91,589.18 44.66,589.18 44.66,113.42 899.91,113.42 899.91,137.28 68.52,137.28 68.52,565.31 
			899.91,565.31 		"/>
		<polygon class="st0" points="1931.18,589.18 1075.93,589.18 1075.93,565.31 1907.32,565.31 1907.32,137.28 1075.93,137.28 
			1075.93,113.42 1931.18,113.42 		"/>
	</g>
</g>
</svg>
